<svg version="1.1" id="Layer_1" xmlns="http://www.w3.org/2000/svg" x="0" y="0" viewBox="0 167 640 147" xml:space="preserve"><g fill="#4A4645"><path d="M442.8 299.1v-2.9h3.7v-.6h-3.7V293h4.1v-.6h-4.7v7.3h4.9v-.6zM456.5 292.3l-2.7 6.4-2.7-6.4h-.6l3.1 7.3h.4l3.1-7.3zM461.8 299.1v-2.9h3.7v-.6h-3.7V293h4.1v-.6h-4.7v7.3h4.9v-.6zM474.5 297.1c1.1-.4 1.7-1.2 1.6-2.2 0-1.6-1-2.5-2.8-2.5h-2.5v7.3h.6v-2.4h2.5l1.8 2.4h.7l-1.9-2.6zm-3.2-4.2h2c1.4 0 2.2.7 2.2 1.9s-.8 1.9-2.2 1.9h-2v-3.8zM492.4 298.3c-.6.5-1.4.8-2.2.8-1.8 0-3.2-1.4-3.2-3.1s1.4-3.1 3.2-3.1c.8 0 1.6.3 2.2.8l.1.1.4-.4-.1-.1c-.6-.6-1.5-1-2.5-1-2.1 0-3.8 1.7-3.8 3.7s1.7 3.7 3.8 3.7c1 0 1.9-.3 2.5-1l.1-.1-.4-.4-.1.1zM502.6 292.3v3.3H498v-3.3h-.6v7.3h.6v-3.4h4.6v3.4h.6v-7.3zM511.1 292.3h-.5l-3.4 7.3h.6l1-2.1h3.9l1 2.1h.6l-3.2-7.3zm-1.9 4.6l1.7-3.7 1.7 3.7h-3.4zM523.7 292.3v6.3l-4.6-6.3H518.5v7.3h.6v-6.3l4.6 6.3H524.3v-7.3zM534.6 298.3c-.6.4-1.3.7-2 .7-1.8 0-3.2-1.4-3.2-3.1s1.4-3.1 3.2-3.1c.8 0 1.6.3 2.2.8l.1.1.4-.4-.2-.1c-.7-.6-1.6-.9-2.5-.9-2.1 0-3.8 1.7-3.8 3.7s1.7 3.7 3.8 3.7c1 0 1.9-.3 2.5-1l.1-.1v-2.8h-.6v2.5zM540.4 292.3h.6v7.3h-.6zM551.5 292.3v6.3l-4.6-6.3H546.3v7.3h.6v-6.3l4.6 6.3h.2l.2.2v-.2h.2v-7.3zM562.4 298.3c-.6.4-1.3.7-2 .7-1.8 0-3.2-1.4-3.2-3.1s1.4-3.1 3.2-3.1c.8 0 1.6.3 2.2.8l.1.1.4-.4-.2-.1c-.7-.6-1.6-.9-2.5-.9-2.1 0-3.8 1.7-3.8 3.7s1.7 3.7 3.8 3.7c1 0 1.9-.3 2.5-1l.1-.1v-2.8h-.6v2.5zM579.5 292.3v3.3h-4.6v-3.3h-.6v7.3h.6v-3.4h4.6v3.4h.6v-7.3zM588.4 292.3c-2.1 0-3.8 1.7-3.8 3.7s1.7 3.7 3.8 3.7 3.8-1.7 3.8-3.7-1.7-3.7-3.8-3.7zm.1 6.8c-1.8 0-3.2-1.4-3.2-3.1s1.4-3.1 3.2-3.1 3.2 1.4 3.2 3.1-1.5 3.1-3.2 3.1zM603.5 292.3h-.5l-2.8 5.5-2.8-5.5H596.8v7.3h.6v-6.1l2.9 5.6 2.8-5.5v6h.5v-7.3zM609.6 299.1v-2.9h3.7v-.6h-3.7V293h4.1v-.6H609v7.3h4.9v-.6zM620.5 295.5c-1-.3-1.8-.6-1.8-1.5 0-.7.7-1.1 1.8-1.1.6 0 1.2.2 1.6.5l.2.1.3-.6-.1-.1c-.5-.4-1.3-.5-1.9-.5-1.4 0-2.4.7-2.4 1.7 0 1.4 1.2 1.8 2.2 2.1 1 .3 1.9.6 1.9 1.6 0 .8-.8 1.3-2 1.3-.8 0-1.6-.3-2-.8l-.3-.2-.4.4.1.1c.7.7 1.6 1.1 2.5 1.1 1.5 0 2.5-.8 2.5-1.9.2-1.5-1.1-1.9-2.2-2.2z"/></g><path fill="#4A4645" d="M63.1 262.3v-48.1h-8v-2H82c3 0 5.4.1 7.5.4 2 .3 4 1.1 5.8 2.3s3.2 2.8 4 4.6 1.2 3.6 1.2 5.2c0 6.2-4.8 10.2-14.3 12.2v.2c10.7 1.7 16.1 6.2 16.1 13.4 0 1.8-.5 3.6-1.4 5.6-1 2-2.5 3.6-4.6 5.1s-4.2 2.3-6.4 2.7c-2.2.3-4.9.5-8.3.5H55.1v-2h8v-.1zm17.2-48.1h-8v21.9h7.1c4.8 0 7.9-.9 9.3-2.8s2-4.9 2-8.9c0-3.2-.4-5.5-1.3-7s-2-2.3-3.4-2.7c-1.2-.3-3.2-.5-5.7-.5zm-.9 23.9h-7.1v24.3h7.3c2.7 0 4.9-.2 6.5-.6s3-1.5 4.1-3.3 1.7-4.6 1.7-8.5c0-4.1-.9-7.1-2.6-9s-4.9-2.9-9.9-2.9zM122.2 262.3v-48.1h-5.6v-2h5.3c3.6 0 6.2-.2 7.8-.6v50.7h5.5v2h-18.6v-2h5.6zM148.3 249c0-4.5 1.5-8.3 4.6-11.4s6.9-4.7 11.5-4.7c4.5 0 8.2 1.5 11.3 4.5s4.6 6.8 4.6 11.3c0 4.6-1.6 8.6-4.8 11.8-3.2 3.2-7 4.8-11.4 4.8-4.3 0-8-1.6-11.1-4.7s-4.7-7-4.7-11.6zm23.3 0c0-4.8-.2-7.9-.5-9.4s-1-2.7-2.2-3.6c-1.1-.9-2.7-1.3-4.6-1.3-1.9 0-3.4.5-4.6 1.4s-1.9 2.1-2.2 3.7c-.3 1.5-.4 4.7-.4 9.4 0 4.8.2 8 .5 9.5.3 1.6 1.1 2.8 2.3 3.7 1.2.9 2.7 1.3 4.4 1.3 1.8 0 3.3-.4 4.5-1.3s2-2.1 2.3-3.7c.4-1.8.5-5 .5-9.7zM192 249.3c0-4.5 1.5-8.3 4.6-11.4 3.1-3.1 6.9-4.7 11.5-4.7 4.5 0 8.2 1.5 11.3 4.5s4.6 6.8 4.6 11.3c0 4.6-1.6 8.6-4.8 11.8s-7 4.8-11.4 4.8c-4.3 0-8-1.6-11.1-4.7s-4.7-7-4.7-11.6zm23.3 0c0-4.8-.2-7.9-.5-9.4s-1-2.7-2.2-3.6c-1.1-.9-2.7-1.3-4.6-1.3-1.9 0-3.4.5-4.6 1.4s-1.9 2.1-2.2 3.7c-.3 1.5-.4 4.7-.4 9.4 0 4.8.2 8 .5 9.5.3 1.6 1.1 2.8 2.3 3.7 1.2.9 2.7 1.3 4.4 1.3 1.8 0 3.3-.4 4.5-1.3s2-2.1 2.3-3.7c.3-1.8.5-5 .5-9.7zM240.9 262.7v-26.6h-5.5v-2h3.4c4 0 7.3-.2 9.6-.5v7.5h.2c2-5 5.7-7.5 11-7.5 5.7 0 8.9 2.7 9.5 8h.2c2.3-5.3 6-8 11.2-8 2.3 0 4.3.6 5.9 1.7 1.6 1.2 2.6 2.5 3 4s.6 4.1.6 7.6v15.7h5.4v2h-18.1v-2h5.1v-19.2c0-3-.2-5.1-.5-6.3s-1.3-1.7-2.8-1.7c-2.1 0-4.3 1.2-6.5 3.6-2.2 2.4-3.3 6.9-3.3 13.5v10.1h5v2h-17.6v-2h5.1v-15c0-5.9-.2-9.3-.6-10.5s-1.4-1.7-3-1.7c-2.2 0-4.1 1-5.8 2.9-1.6 1.9-2.7 3.8-3.1 5.7-.4 1.8-.6 4.8-.6 8.8v9.8h5v2h-18.1v-2h5.3v.1zM320.6 233.5v29.1h5.1v2h-18.1v-2h5.4V236h-5.4v-2h5.5c2.6.1 5.1-.1 7.5-.5zm-7.9-14.9c0-1.1.4-2.1 1.3-3 .8-.8 1.8-1.2 3-1.2 1.1 0 2.1.4 3 1.2.8.8 1.3 1.8 1.3 3s-.4 2.2-1.2 3c-.8.8-1.8 1.2-3 1.2s-2.2-.4-3-1.2c-.9-.8-1.4-1.8-1.4-3zM344.5 262.7v-26.6H339v-2h3.5c3.5 0 6.7-.2 9.5-.6v7.6h.2c2.7-5.3 6.4-8 11.3-8 2.3 0 4.2.6 5.6 1.7 1.5 1.2 2.5 2.5 3 4.1s.8 4 .8 7.3v16.3h6.1v2h-18.8v-2h5.2v-19.4c0-3-.2-5-.6-6.2s-1.4-1.7-2.9-1.7c-2.5 0-4.8 1.3-6.8 3.9-2 2.6-3 6-3 10.4v13.1h5.1v2H339v-2h5.5v.1zM417.2 238.2c1.5 2.1 2.3 4.3 2.3 6.4 0 3.5-1.4 6.2-4.3 8.1-2.9 1.8-5.2 2.7-7 2.7l-1.9.1c-.9 0-2.1-.1-3.7-.2s-2.4-.2-2.5-.2c-1 0-2.2.5-3.5 1.4s-2 1.9-2 2.9c0 .9.3 1.6 1 2.1s2.4.7 5.2.7l13.3-.5c2.8 0 5 .9 6.8 2.6s2.6 4.3 2.6 7.5c0 3.8-1.6 7-4.7 9.6s-7.5 3.9-13 3.9c-4.3 0-7.7-.9-10.2-2.6s-3.8-3.7-3.8-6.1c0-1.4.4-2.6 1.2-3.6.8-1 2.6-2.3 5.4-3.9-4.3-1-6.4-3.4-6.4-7.1 0-5 2.7-7.8 8-8.4v-.2c-4.1-2-6.2-4.9-6.2-8.9 0-3.2 1.3-5.9 3.8-8.1 2.6-2.2 5.6-3.3 9.1-3.3 3.8 0 6.9 1.3 9.5 3.9 1.9-2.6 3.9-3.9 6.2-3.9.9 0 1.6.3 2.3.9.6.6 1 1.4 1 2.4 0 .9-.3 1.6-.9 2.2-.6.5-1.2.8-1.9.8-1 0-1.7-.5-2.2-1.4s-.9-1.4-1.2-1.4c-.7.1-1.5.6-2.3 1.6zm-16.6 30.9c-2.5 1.6-3.7 3.9-3.7 6.9 0 4.8 3.3 7.2 9.9 7.2 4.2 0 7.7-1 10.4-3s4.1-4.3 4.1-6.9c0-1.6-.7-2.8-2.1-3.7-1.4-.9-2.9-1.3-4.6-1.3-.7 0-2.2.1-4.5.2s-4.1.2-5.2.3l-4.3.3zm5.8-34c-2.5 0-4.1.6-4.7 1.9-.6 1.3-.9 3.4-.9 6.4 0 4.3.3 7.1.8 8.3.6 1.2 2.2 1.9 4.8 1.9 2.7 0 4.3-.6 4.9-1.9.5-1.3.8-4.4.8-9.3 0-3.1-.5-5-1.5-5.9-.8-.9-2.3-1.4-4.2-1.4zM469 236.1l-14.7 29.8h-1l-15-29.8h-4.7v-2h19.1v2h-5.9l10.2 20.7 10-20.7h-5.9v-2h12.6v2H469zM496.8 233.5v29.1h5.1v2h-18.1v-2h5.4V236h-5.4v-2h5.5c2.7.1 5.1-.1 7.5-.5zm-7.8-14.9c0-1.1.4-2.1 1.3-3 .8-.8 1.8-1.2 3-1.2 1.1 0 2.1.4 3 1.2.8.8 1.3 1.8 1.3 3s-.4 2.2-1.2 3-1.8 1.2-3 1.2-2.2-.4-3-1.2c-1-.8-1.4-1.8-1.4-3zM520 262.7v-48.1h-5.6v-2h5.3c3.6 0 6.2-.2 7.8-.6v50.7h5.5v2h-18.6v-2h5.6zM551.2 262.7v-48.1h-5.6v-2h5.3c3.6 0 6.2-.2 7.8-.6v50.7h5.5v2h-18.6v-2h5.6zM605 247.1h-19.7c-.2 7.7.2 12.4 1.3 14.2 1 1.8 2.9 2.7 5.6 2.7 5.5 0 9.2-3.2 11.1-9.6h1.7c-.9 3.9-2.5 6.7-4.9 8.5s-5 2.8-8 2.8c-4.2 0-7.8-1.5-10.9-4.6-3.1-3.1-4.6-7-4.6-11.7 0-4.6 1.5-8.4 4.5-11.5s6.5-4.7 10.5-4.7c3.5 0 6.5 1.2 9.1 3.7 2.8 2.4 4.2 5.8 4.3 10.2zm-19.6-1.8h11.3c.2-1.8.3-3.2.3-4.2 0-4.1-1.9-6.2-5.6-6.2-1.9 0-3.3.5-4.4 1.5-1.1 1-1.6 2.4-1.6 4.1v4.8zM619.2 216.2c-3.3 0-6 2.7-6 6s2.7 6 6 6c3.4 0 6-2.6 6-6 0-3.3-2.7-6-6-6zm0 11.6c-3.1 0-5.6-2.5-5.6-5.6 0-3.1 2.5-5.6 5.6-5.6s5.6 2.5 5.6 5.6c0 3.1-2.5 5.6-5.6 5.6z"/><path fill="#4A4645" d="M618.2 224.8V220h-1.1v-.4h1.1c.6 0 1 0 1.3-.1v1.3c.3-.9.8-1.3 1.4-1.3.3 0 .5.1.7.3s.3.4.3.6c0 .2-.1.4-.2.5-.1.1-.3.2-.5.2-.4 0-.6-.2-.6-.6v-.3c0-.1 0-.2-.1-.2-.2 0-.3.2-.6.6s-.4 1-.4 1.9v2.1h1.2v.4h-3.6v-.4h1.1v.2zM30.7 193.7c-.9-3.1-1.5-5.9-1.6-8.9-.1-1.2 0-2.5.4-3.7.3-1.1 1.4-2.2 2.6-2 .9.1 1.7.8 2 1.7.4.8.4 1.8.4 2.7.1 3.5 0 7-1 10.4 2.9-1.1 5.8-2.2 8.7-3.4 1.1-.4 2.2-.8 3.4-.8 1.2.1 2.4.8 2.6 1.9.2.9-.4 1.8-1.1 2.4s-1.7.8-2.6 1c-3.3.7-6.4 1.3-9.7 1.6 2.4 2.5 3.4 4.7 5.9 7.8.5.6 2.4 3.1.8 4.6-1.9 1.8-3.3 0-3.7-.4-.6-.5-1.1-1.2-1.6-2.1-1-1.8-1.5-2.4-1.7-3-1.1-2.3-1.3-3-2.4-4.6-1 1.5-2.1 4-3.1 5.7-1.5 2.7-2.4 4.3-3.8 5-.5.2-1.7.2-2.1-.1-.3-.1-.7-.6-.8-.9-.9-2 .4-3.7 1.9-5.3 1.5-1.7 3.7-5 5.4-6.8-2.6-.4-5.3-.8-8-1.5-1.3-.3-3.2-.9-4.6-1.4-1.3-.5-1.5-2.2-1-3.4 1-1.6 3.4-1.3 4.9-.9s2.1 1 3.4 1.8c2.1 1.1 3.8 1.8 6.4 2.6M435.1 296.2h2.8v.4h-2.8z"/></svg>