<svg xmlns="http://www.w3.org/2000/svg" viewBox="0 0 48 48"><defs><style>.a,.b{fill:none;}.b{stroke:#000;stroke-linecap:round;stroke-linejoin:round;stroke-width:2px;}</style></defs><title>428_tr_h</title><rect class="a" width="48" height="48"/><path class="b" d="M4,20V12.49A4.49,4.49,0,0,1,8.49,8h31A4.49,4.49,0,0,1,44,12.49V20"/><path class="b" d="M45,40V29.3A3.3,3.3,0,0,0,41.7,26H6.3A3.3,3.3,0,0,0,3,29.3V40"/><line class="b" x1="3" y1="35" x2="45" y2="35"/><path class="b" d="M20,20V17a2,2,0,0,0-2-2H14a2,2,0,0,0-2,2v3"/><path class="b" d="M36,20V17a2,2,0,0,0-2-2H30a2,2,0,0,0-2,2v3"/></svg>